<?xml version="1.0" encoding="UTF-8" standalone="yes"?><!DOCTYPE svg PUBLIC "-//W3C//DTD SVG 1.1//EN" "http://www.w3.org/Graphics/SVG/1.1/DTD/svg11.dtd"><svg xmlns="http://www.w3.org/2000/svg" version="1.1" viewBox="0 0 322.487060546875 320" style="false" xmlns:xlink="http://www.w3.org/1999/xlink"><defs><linearGradient id="gradient" x1="0%" y1="0%" x2="0%" y2="100%" spreadMethod="pad"><stop offset="0%" stop-color="#CCC" stop-opacity="0"></stop><stop offset="100%" stop-color="#CCC" stop-opacity="0.2"></stop></linearGradient><polygon points="17.320508075688775,-9.999999999999996 17.320508075688775,10 0,20 -17.320508075688778,9.999999999999996 -17.320508075688778,-9.999999999999995 -3.673940392319381e-15,-20 " id="hexover" style="fill : url(#gradient);" class="hexover"></polygon><filter id="f1" x="0" y="0" width="200%" height="200%"><feImage xlink:href="#hexover" result="remedy"></feImage><feBlend in="SourceGraphic" in2="remedy" mode="normal"></feBlend></filter><style type="text/css">.line {
    stroke : #000000;
    stroke-width : 3px;
    fill : none;
}

.hex {
    fill : #BBB;
    stroke : #888;
    stroke-width : 1px;
}

.tri {
    fill : #DDD;
    stroke : none;
}

.hexover {
    stroke-width : 0px;
}

/* Stuff for the shapelet editor */
polygon
{
    transition : 0.3s;
}


line {
    stroke : #000000;
    stroke-width : 3px;
    fill : none;

    transition : 0.3s;
}

circle {
    stroke : #000000;
    stroke-width : 1px;
    fill : white;

    transition : 1s;
}

.chosen {
    fill : red;
}

.shapeletline {
    stroke : red;
    stroke-width : 6px;
    fill : none;

    stroke-linecap : round;
}

.tile {
    stroke : #3366CC;
    stroke-width : 6px;
    fill : none;
}

.arrow {
    stroke : blue;
    stroke-width : 2px;
    fill : none;
}

.primary
{
    fill : hsl(220, 80%, 60%) !important;
}

.secondary
{
    fill : hsl(220, 60%, 75%) !important;
}

.secondary.primary
{
    fill : hsl(220, 80%, 60%) !important;
}</style></defs><g id="hexagons" style="opacity: 1; -webkit-transition: 1s; transition: 1s;" transform="translate(-1675.359130859375,-1680)"><polygon points="1767.3205080756888,1740 1767.3205080756888,1760 1750,1770 1732.6794919243112,1760 1732.6794919243112,1740 1750,1730 " class="hex" id="hex0" style="fill: rgb(64, 191, 78); stroke: rgb(45, 134, 55);"></polygon><polygon points="1750,1770 1750,1790 1732.6794919243112,1800 1715.3589838486223,1790 1715.3589838486223,1770 1732.6794919243112,1760 " class="hex" id="hex1" style="fill: rgb(64, 191, 78); stroke: rgb(45, 134, 55);"></polygon><polygon points="1767.3205080756888,1800 1767.3205080756888,1820 1750,1830 1732.6794919243112,1820 1732.6794919243112,1800 1750,1790 " class="hex" id="hex2" style="fill: rgb(64, 191, 78); stroke: rgb(45, 134, 55);"></polygon><polygon points="1784.6410161513777,1770 1784.6410161513777,1790 1767.3205080756888,1800 1750,1790 1750,1770 1767.3205080756888,1760 " class="hex" id="hex3" style="fill: rgb(64, 191, 78); stroke: rgb(45, 134, 55);"></polygon><polygon points="1801.9615242270665,1800 1801.9615242270665,1820 1784.6410161513777,1830 1767.3205080756888,1820 1767.3205080756888,1800 1784.6410161513777,1790 " class="hex" id="hex4" style="fill: rgb(64, 191, 78); stroke: rgb(45, 134, 55);"></polygon><polygon points="1819.2820323027554,1770 1819.2820323027554,1790 1801.9615242270665,1800 1784.6410161513777,1790 1784.6410161513777,1770 1801.9615242270665,1760 " class="hex" id="hex5" style="fill: rgb(64, 191, 78); stroke: rgb(45, 134, 55);"></polygon><polygon points="1801.9615242270665,1740 1801.9615242270665,1760 1784.6410161513777,1770 1767.3205080756888,1760 1767.3205080756888,1740 1784.6410161513777,1730 " class="hex" id="hex6" style="fill: rgb(64, 191, 78); stroke: rgb(45, 134, 55);"></polygon><polygon points="1836.602540378444,1740 1836.602540378444,1760 1819.2820323027552,1770 1801.9615242270663,1760 1801.9615242270663,1740 1819.2820323027552,1730 " class="hex" id="hex7" style="fill: rgb(64, 191, 151); stroke: rgb(45, 134, 106);"></polygon><polygon points="1853.9230484541329,1710 1853.9230484541329,1730 1836.602540378444,1740 1819.2820323027552,1730 1819.2820323027552,1710 1836.602540378444,1700 " class="hex" id="hex8" style="fill: rgb(64, 191, 151); stroke: rgb(45, 134, 106);"></polygon><polygon points="1888.5640646055103,1710 1888.5640646055103,1730 1871.2435565298215,1740 1853.9230484541326,1730 1853.9230484541326,1710 1871.2435565298215,1700 " class="hex" id="hex9" style="fill: rgb(64, 191, 151); stroke: rgb(45, 134, 106);"></polygon><polygon points="1871.2435565298215,1740 1871.2435565298215,1760 1853.9230484541326,1770 1836.6025403784438,1760 1836.6025403784438,1740 1853.9230484541326,1730 " class="hex" id="hex10" style="fill: rgb(64, 191, 151); stroke: rgb(45, 134, 106);"></polygon><polygon points="1853.9230484541326,1770 1853.9230484541326,1790 1836.6025403784438,1800 1819.282032302755,1790 1819.282032302755,1770 1836.6025403784438,1760 " class="hex" id="hex11" style="fill: rgb(64, 191, 151); stroke: rgb(45, 134, 106);"></polygon><polygon points="1888.56406460551,1770 1888.56406460551,1790 1871.2435565298213,1800 1853.9230484541324,1790 1853.9230484541324,1770 1871.2435565298213,1760 " class="hex" id="hex12" style="fill: rgb(64, 191, 151); stroke: rgb(45, 134, 106);"></polygon><polygon points="1905.884572681199,1740 1905.884572681199,1760 1888.56406460551,1770 1871.2435565298213,1760 1871.2435565298213,1740 1888.56406460551,1730 " class="hex" id="hex13" style="fill: rgb(64, 191, 151); stroke: rgb(45, 134, 106);"></polygon><polygon points="1923.2050807568878,1770 1923.2050807568878,1790 1905.884572681199,1800 1888.56406460551,1790 1888.56406460551,1770 1905.884572681199,1760 " class="hex" id="hex14" style="fill: rgb(64, 159, 191); stroke: rgb(45, 111, 134);"></polygon><polygon points="1957.8460969082653,1770 1957.8460969082653,1790 1940.5255888325764,1800 1923.2050807568876,1790 1923.2050807568876,1770 1940.5255888325764,1760 " class="hex" id="hex15" style="fill: rgb(64, 159, 191); stroke: rgb(45, 111, 134);"></polygon><polygon points="1975.1666049839541,1800 1975.1666049839541,1820 1957.8460969082653,1830 1940.5255888325764,1820 1940.5255888325764,1800 1957.8460969082653,1790 " class="hex" id="hex16" style="fill: rgb(64, 159, 191); stroke: rgb(45, 111, 134);"></polygon><polygon points="1940.5255888325767,1800 1940.5255888325767,1820 1923.2050807568878,1830 1905.884572681199,1820 1905.884572681199,1800 1923.2050807568878,1790 " class="hex" id="hex17" style="fill: rgb(64, 159, 191); stroke: rgb(45, 111, 134);"></polygon><polygon points="1957.8460969082655,1830 1957.8460969082655,1850 1940.5255888325767,1860 1923.2050807568878,1850 1923.2050807568878,1830 1940.5255888325767,1820 " class="hex" id="hex18" style="fill: rgb(64, 159, 191); stroke: rgb(45, 111, 134);"></polygon><polygon points="1923.205080756888,1830 1923.205080756888,1850 1905.8845726811992,1860 1888.5640646055103,1850 1888.5640646055103,1830 1905.8845726811992,1820 " class="hex" id="hex19" style="fill: rgb(64, 159, 191); stroke: rgb(45, 111, 134);"></polygon><polygon points="1905.8845726811992,1800 1905.8845726811992,1820 1888.5640646055103,1830 1871.2435565298215,1820 1871.2435565298215,1800 1888.5640646055103,1790 " class="hex" id="hex20" style="fill: rgb(64, 159, 191); stroke: rgb(45, 111, 134);"></polygon><polygon points="1871.2435565298217,1800 1871.2435565298217,1820 1853.9230484541329,1830 1836.602540378444,1820 1836.602540378444,1800 1853.9230484541329,1790 " class="hex" id="hex21" style="fill: rgb(64, 86, 191); stroke: rgb(45, 60, 134);"></polygon><polygon points="1888.5640646055106,1830 1888.5640646055106,1850 1871.2435565298217,1860 1853.9230484541329,1850 1853.9230484541329,1830 1871.2435565298217,1820 " class="hex" id="hex22" style="fill: rgb(64, 86, 191); stroke: rgb(45, 60, 134);"></polygon><polygon points="1871.2435565298217,1860 1871.2435565298217,1880 1853.9230484541329,1890 1836.602540378444,1880 1836.602540378444,1860 1853.9230484541329,1850 " class="hex" id="hex23" style="fill: rgb(64, 86, 191); stroke: rgb(45, 60, 134);"></polygon><polygon points="1853.9230484541329,1830 1853.9230484541329,1850 1836.602540378444,1860 1819.2820323027552,1850 1819.2820323027552,1830 1836.602540378444,1820 " class="hex" id="hex24" style="fill: rgb(64, 86, 191); stroke: rgb(45, 60, 134);"></polygon><polygon points="1836.602540378444,1800 1836.602540378444,1820 1819.2820323027552,1830 1801.9615242270663,1820 1801.9615242270663,1800 1819.2820323027552,1790 " class="hex" id="hex25" style="fill: rgb(64, 86, 191); stroke: rgb(45, 60, 134);"></polygon><polygon points="1819.2820323027552,1830 1819.2820323027552,1850 1801.9615242270663,1860 1784.6410161513775,1850 1784.6410161513775,1830 1801.9615242270663,1820 " class="hex" id="hex26" style="fill: rgb(64, 86, 191); stroke: rgb(45, 60, 134);"></polygon><polygon points="1836.602540378444,1860 1836.602540378444,1880 1819.2820323027552,1890 1801.9615242270663,1880 1801.9615242270663,1860 1819.2820323027552,1850 " class="hex" id="hex27" style="fill: rgb(64, 86, 191); stroke: rgb(45, 60, 134);"></polygon><polygon points="1801.9615242270665,1860 1801.9615242270665,1880 1784.6410161513777,1890 1767.3205080756888,1880 1767.3205080756888,1860 1784.6410161513777,1850 " class="hex" id="hex28" style="fill: rgb(114, 64, 191); stroke: rgb(80, 45, 134);"></polygon><polygon points="1784.6410161513777,1830 1784.6410161513777,1850 1767.3205080756888,1860 1750,1850 1750,1830 1767.3205080756888,1820 " class="hex" id="hex29" style="fill: rgb(114, 64, 191); stroke: rgb(80, 45, 134);"></polygon><polygon points="1750.0000000000002,1830 1750.0000000000002,1850 1732.6794919243114,1860 1715.3589838486225,1850 1715.3589838486225,1830 1732.6794919243114,1820 " class="hex" id="hex30" style="fill: rgb(114, 64, 191); stroke: rgb(80, 45, 134);"></polygon><polygon points="1767.320508075689,1860 1767.320508075689,1880 1750.0000000000002,1890 1732.6794919243114,1880 1732.6794919243114,1860 1750.0000000000002,1850 " class="hex" id="hex31" style="fill: rgb(114, 64, 191); stroke: rgb(80, 45, 134);"></polygon><polygon points="1732.6794919243116,1860 1732.6794919243116,1880 1715.3589838486228,1890 1698.038475772934,1880 1698.038475772934,1860 1715.3589838486228,1850 " class="hex" id="hex32" style="fill: rgb(114, 64, 191); stroke: rgb(80, 45, 134);"></polygon><polygon points="1750.0000000000005,1890 1750.0000000000005,1910 1732.6794919243116,1920 1715.3589838486228,1910 1715.3589838486228,1890 1732.6794919243116,1880 " class="hex" id="hex33" style="fill: rgb(114, 64, 191); stroke: rgb(80, 45, 134);"></polygon><polygon points="1784.641016151378,1890 1784.641016151378,1910 1767.320508075689,1920 1750.0000000000002,1910 1750.0000000000002,1890 1767.320508075689,1880 " class="hex" id="hex34" style="fill: rgb(114, 64, 191); stroke: rgb(80, 45, 134);"></polygon><polygon points="1801.9615242270668,1920 1801.9615242270668,1940 1784.641016151378,1950 1767.320508075689,1940 1767.320508075689,1920 1784.641016151378,1910 " class="hex" id="hex35" style="fill: rgb(187, 64, 191); stroke: rgb(131, 45, 134);"></polygon><polygon points="1819.2820323027556,1890 1819.2820323027556,1910 1801.9615242270668,1920 1784.641016151378,1910 1784.641016151378,1890 1801.9615242270668,1880 " class="hex" id="hex36" style="fill: rgb(187, 64, 191); stroke: rgb(131, 45, 134);"></polygon><polygon points="1853.923048454133,1890 1853.923048454133,1910 1836.6025403784442,1920 1819.2820323027554,1910 1819.2820323027554,1890 1836.6025403784442,1880 " class="hex" id="hex37" style="fill: rgb(187, 64, 191); stroke: rgb(131, 45, 134);"></polygon><polygon points="1836.6025403784442,1920 1836.6025403784442,1940 1819.2820323027554,1950 1801.9615242270665,1940 1801.9615242270665,1920 1819.2820323027554,1910 " class="hex" id="hex38" style="fill: rgb(187, 64, 191); stroke: rgb(131, 45, 134);"></polygon><polygon points="1819.2820323027554,1950 1819.2820323027554,1970 1801.9615242270665,1980 1784.6410161513777,1970 1784.6410161513777,1950 1801.9615242270665,1940 " class="hex" id="hex39" style="fill: rgb(187, 64, 191); stroke: rgb(131, 45, 134);"></polygon><polygon points="1853.9230484541329,1950 1853.9230484541329,1970 1836.602540378444,1980 1819.2820323027552,1970 1819.2820323027552,1950 1836.602540378444,1940 " class="hex" id="hex40" style="fill: rgb(187, 64, 191); stroke: rgb(131, 45, 134);"></polygon><polygon points="1871.2435565298217,1920 1871.2435565298217,1940 1853.9230484541329,1950 1836.602540378444,1940 1836.602540378444,1920 1853.9230484541329,1910 " class="hex" id="hex41" style="fill: rgb(187, 64, 191); stroke: rgb(131, 45, 134);"></polygon><polygon points="1905.8845726811992,1920 1905.8845726811992,1940 1888.5640646055103,1950 1871.2435565298215,1940 1871.2435565298215,1920 1888.5640646055103,1910 " class="hex" id="hex42" style="fill: rgb(191, 64, 122); stroke: rgb(134, 45, 86);"></polygon><polygon points="1888.5640646055103,1890 1888.5640646055103,1910 1871.2435565298215,1920 1853.9230484541326,1910 1853.9230484541326,1890 1871.2435565298215,1880 " class="hex" id="hex43" style="fill: rgb(191, 64, 122); stroke: rgb(134, 45, 86);"></polygon><polygon points="1905.8845726811992,1860 1905.8845726811992,1880 1888.5640646055103,1890 1871.2435565298215,1880 1871.2435565298215,1860 1888.5640646055103,1850 " class="hex" id="hex44" style="fill: rgb(191, 64, 122); stroke: rgb(134, 45, 86);"></polygon><polygon points="1923.205080756888,1890 1923.205080756888,1910 1905.8845726811992,1920 1888.5640646055103,1910 1888.5640646055103,1890 1905.8845726811992,1880 " class="hex" id="hex45" style="fill: rgb(191, 64, 122); stroke: rgb(134, 45, 86);"></polygon><polygon points="1940.525588832577,1860 1940.525588832577,1880 1923.205080756888,1890 1905.8845726811992,1880 1905.8845726811992,1860 1923.205080756888,1850 " class="hex" id="hex46" style="fill: rgb(191, 64, 122); stroke: rgb(134, 45, 86);"></polygon><polygon points="1957.8460969082657,1890 1957.8460969082657,1910 1940.525588832577,1920 1923.205080756888,1910 1923.205080756888,1890 1940.525588832577,1880 " class="hex" id="hex47" style="fill: rgb(191, 64, 122); stroke: rgb(134, 45, 86);"></polygon><polygon points="1940.525588832577,1920 1940.525588832577,1940 1923.205080756888,1950 1905.8845726811992,1940 1905.8845726811992,1920 1923.205080756888,1910 " class="hex" id="hex48" style="fill: rgb(191, 64, 122); stroke: rgb(134, 45, 86);"></polygon><use xlink:href="#hexover" x="1750" y="1750" id="hexover0"></use><use xlink:href="#hexover" x="1732.6794919243112" y="1780" id="hexover1"></use><use xlink:href="#hexover" x="1750" y="1810" id="hexover2"></use><use xlink:href="#hexover" x="1767.3205080756888" y="1780" id="hexover3"></use><use xlink:href="#hexover" x="1784.6410161513777" y="1810" id="hexover4"></use><use xlink:href="#hexover" x="1801.9615242270665" y="1780" id="hexover5"></use><use xlink:href="#hexover" x="1784.6410161513777" y="1750" id="hexover6"></use><use xlink:href="#hexover" x="1819.2820323027552" y="1750" id="hexover7"></use><use xlink:href="#hexover" x="1836.602540378444" y="1720" id="hexover8"></use><use xlink:href="#hexover" x="1871.2435565298215" y="1720" id="hexover9"></use><use xlink:href="#hexover" x="1853.9230484541326" y="1750" id="hexover10"></use><use xlink:href="#hexover" x="1836.6025403784438" y="1780" id="hexover11"></use><use xlink:href="#hexover" x="1871.2435565298213" y="1780" id="hexover12"></use><use xlink:href="#hexover" x="1888.56406460551" y="1750" id="hexover13"></use><use xlink:href="#hexover" x="1905.884572681199" y="1780" id="hexover14"></use><use xlink:href="#hexover" x="1940.5255888325764" y="1780" id="hexover15"></use><use xlink:href="#hexover" x="1957.8460969082653" y="1810" id="hexover16"></use><use xlink:href="#hexover" x="1923.2050807568878" y="1810" id="hexover17"></use><use xlink:href="#hexover" x="1940.5255888325767" y="1840" id="hexover18"></use><use xlink:href="#hexover" x="1905.8845726811992" y="1840" id="hexover19"></use><use xlink:href="#hexover" x="1888.5640646055103" y="1810" id="hexover20"></use><use xlink:href="#hexover" x="1853.9230484541329" y="1810" id="hexover21"></use><use xlink:href="#hexover" x="1871.2435565298217" y="1840" id="hexover22"></use><use xlink:href="#hexover" x="1853.9230484541329" y="1870" id="hexover23"></use><use xlink:href="#hexover" x="1836.602540378444" y="1840" id="hexover24"></use><use xlink:href="#hexover" x="1819.2820323027552" y="1810" id="hexover25"></use><use xlink:href="#hexover" x="1801.9615242270663" y="1840" id="hexover26"></use><use xlink:href="#hexover" x="1819.2820323027552" y="1870" id="hexover27"></use><use xlink:href="#hexover" x="1784.6410161513777" y="1870" id="hexover28"></use><use xlink:href="#hexover" x="1767.3205080756888" y="1840" id="hexover29"></use><use xlink:href="#hexover" x="1732.6794919243114" y="1840" id="hexover30"></use><use xlink:href="#hexover" x="1750.0000000000002" y="1870" id="hexover31"></use><use xlink:href="#hexover" x="1715.3589838486228" y="1870" id="hexover32"></use><use xlink:href="#hexover" x="1732.6794919243116" y="1900" id="hexover33"></use><use xlink:href="#hexover" x="1767.320508075689" y="1900" id="hexover34"></use><use xlink:href="#hexover" x="1784.641016151378" y="1930" id="hexover35"></use><use xlink:href="#hexover" x="1801.9615242270668" y="1900" id="hexover36"></use><use xlink:href="#hexover" x="1836.6025403784442" y="1900" id="hexover37"></use><use xlink:href="#hexover" x="1819.2820323027554" y="1930" id="hexover38"></use><use xlink:href="#hexover" x="1801.9615242270665" y="1960" id="hexover39"></use><use xlink:href="#hexover" x="1836.602540378444" y="1960" id="hexover40"></use><use xlink:href="#hexover" x="1853.9230484541329" y="1930" id="hexover41"></use><use xlink:href="#hexover" x="1888.5640646055103" y="1930" id="hexover42"></use><use xlink:href="#hexover" x="1871.2435565298215" y="1900" id="hexover43"></use><use xlink:href="#hexover" x="1888.5640646055103" y="1870" id="hexover44"></use><use xlink:href="#hexover" x="1905.8845726811992" y="1900" id="hexover45"></use><use xlink:href="#hexover" x="1923.205080756888" y="1870" id="hexover46"></use><use xlink:href="#hexover" x="1940.525588832577" y="1900" id="hexover47"></use><use xlink:href="#hexover" x="1923.205080756888" y="1930" id="hexover48"></use></g><g transform="translate(-1675.359130859375,-1680)"><path d="M 1750 1750  l -17.32050807568879 29.999999999999986  l 17.320508075688775 30  l 17.32050807568877 -30  l 17.320508075688775 30  l 17.32050807568877 -30  l -17.32050807568876 -30.000000000000007  l 34.64101615137754 0  l 17.32050807568877 -30  l 34.64101615137754 0  l -17.32050807568879 29.999999999999986  l -17.32050807568879 29.999999999999986  l 34.64101615137754 0  l 17.32050807568877 -30  l 17.320508075688775 30  l 34.64101615137754 0  l 17.320508075688775 30  l -34.64101615137754 -4.242300953760197e-15  l 17.320508075688775 30  l -34.64101615137754 -4.242300953760197e-15  l -17.32050807568876 -30.000000000000007  l -34.64101615137754 -4.242300953760197e-15  l 17.320508075688775 30  l -17.32050807568879 29.999999999999986  l -17.32050807568876 -30.000000000000007  l -17.32050807568876 -30.000000000000007  l -17.32050807568879 29.999999999999986  l 17.320508075688775 30  l -34.64101615137754 -4.242300953760197e-15  l -17.32050807568876 -30.000000000000007  l -34.64101615137754 -4.242300953760197e-15  l 17.320508075688775 30  l -34.64101615137754 -4.242300953760197e-15  l 17.320508075688775 30  l 34.64101615137754 0  l 17.320508075688775 30  l 17.32050807568877 -30  l 34.64101615137754 0  l -17.32050807568879 29.999999999999986  l -17.32050807568879 29.999999999999986  l 34.64101615137754 0  l 17.32050807568877 -30  l 34.64101615137754 0  l -17.32050807568876 -30.000000000000007  l 17.32050807568877 -30  l 17.320508075688775 30  l 17.32050807568877 -30  l 17.320508075688775 30  l -17.32050807568879 29.999999999999986 " class="line"></path></g></svg>